<svg xmlns="http://www.w3.org/2000/svg" viewBox="0 0 64 64" role="img">
    <defs>
        <linearGradient id="quarry-favicon-strata" x1="0%" y1="0%" x2="100%" y2="100%">
            <stop offset="0%" stop-color="#A3642A" />
            <stop offset="100%" stop-color="#6B3F1B" />
        </linearGradient>
    </defs>
    <rect width="64" height="64" rx="8" fill="url(#quarry-favicon-strata)" />
    <rect x="8" y="16" width="24" height="28" rx="4" fill="#F4E8D3" />
    <rect x="20" y="20" width="24" height="28" rx="4" fill="#F4E8D3" opacity="0.9" />
    <path
        d="M32 12h8a4 4 0 0 1 4 4v24c0 2.21-1.79 4-4 4H20l-4-6h20a1.5 1.5 0 0 0 1.5-1.5V18a1.5 1.5 0 0 0-1.5-1.5h-8V12Z"
        fill="#2F2F2F"
    />
    <path
        d="M14 24h12M14 30h8M14 36h12"
        stroke="#8B5E34"
        stroke-width="2"
        stroke-linecap="round"
    />
    <circle cx="38" cy="20" r="4" fill="#F59E0B" />
    <path
        d="M38 17v6M36 20h4"
        stroke="#1F2933"
        stroke-width="1.5"
        stroke-linecap="round"
    />
</svg>
